<svg id="Layer_1" data-name="Layer 1" xmlns="http://www.w3.org/2000/svg" viewBox="0 0 438.68 329.12"><defs><style>.cls-1{fill:#b3b3b3;}</style></defs><path class="cls-1" d="M108,172.08a26.74,26.74,0,1,0,0,53.48c14.77,0,42.66,3.81,42.66-11C150.68,191.65,122.79,172.08,108,172.08Z"/><path class="cls-1" d="M427.6,109H383.38L358,45.63A72.59,72.59,0,0,0,290.64,0H148a72.58,72.58,0,0,0-67.4,45.63L55.29,109H11.07C4.12,109-1.11,115,.2,121.37l4.34,21.15A10.93,10.93,0,0,0,15.41,151H26.29a57.86,57.86,0,0,0-12.74,36.21v45.7c0,.44,0,.87,0,1.31h0V310a19.12,19.12,0,0,0,19.13,19.13H49.89A19.12,19.12,0,0,0,69,310V287H369.65V310a19.13,19.13,0,0,0,19.13,19.13H406A19.12,19.12,0,0,0,425.13,310V234.17h0c0-.44,0-.87,0-1.31v-45.7A57.87,57.87,0,0,0,412.38,151h10.88a10.91,10.91,0,0,0,10.87-8.43l4.34-21.15C439.79,115,434.56,109,427.6,109ZM117.77,60.49A32.59,32.59,0,0,1,148,40h142.6A32.58,32.58,0,0,1,320.9,60.49L340.3,109H98.37ZM385.13,232.86A14.18,14.18,0,0,1,371,247H67.72a14.17,14.17,0,0,1-14.17-14.18v-45.7a17.88,17.88,0,0,1,4.31-11.64l12.61-14.67A28.5,28.5,0,0,1,92.06,151H346.62a28.49,28.49,0,0,1,21.58,9.9l12.62,14.67a17.88,17.88,0,0,1,4.31,11.64Z"/><path class="cls-1" d="M330.65,172.08c-14.77,0-42.65,19.57-42.65,42.52,0,14.77,27.88,11,42.65,11a26.74,26.74,0,1,0,0-53.48Z"/></svg>