<svg id="Layer_1" data-name="Layer 1" xmlns="http://www.w3.org/2000/svg" viewBox="0 0 44.96 32.31"><defs><style>.cls-1{fill:none;}</style></defs><path class="cls-1" d="M6.73,16.14H6.42A2.55,2.55,0,0,0,4,18.83a1.61,1.61,0,0,0,0,.31,2.54,2.54,0,0,0,2.69,2.38h0c1.61,0,4,.27,4-1.35A5.19,5.19,0,0,0,6.73,16.14Z"/><path d="M23.27,23l1.63-.63a.48.48,0,0,0,.28-.28.49.49,0,0,0-.28-.63l-1.64-.63.42-1.7a11.91,11.91,0,0,1,1.42-3.46L26,14.13l1.62.73a.37.37,0,0,0,.18,0,.65.65,0,0,0,.2,0,.55.55,0,0,0,.26-.27.53.53,0,0,0,0-.37l-.72-1.6.83-.51h-19L11.1,7.92h0a4,4,0,0,1,3.75-2.54H25.53a4.05,4.05,0,0,1,3.75,2.54l1.21,3a11.93,11.93,0,0,1,2-.69l1.71-.4.63,1.64a.51.51,0,0,0,.28.28.47.47,0,0,0,.17,0,.5.5,0,0,0,.46-.32l.37-1L36,10.11,34.28,5.92A9.38,9.38,0,0,0,25.53,0H14.85A9.38,9.38,0,0,0,6.1,5.92L4.42,10.11l-.95,2.37A5.37,5.37,0,0,0,0,17.5v4a5.27,5.27,0,0,0,1.35,3.53v4.55A2.69,2.69,0,0,0,4,32.31H6.73a2.7,2.7,0,0,0,2.69-2.7V26.92H24.47a11.8,11.8,0,0,1-.8-2.25ZM6.73,21.52h0A2.54,2.54,0,0,1,4,19.14a1.61,1.61,0,0,1,0-.31,2.55,2.55,0,0,1,2.38-2.69h.31a5.19,5.19,0,0,1,4,4C10.77,21.79,8.34,21.52,6.73,21.52Z"/><path id="Icon_ionic-ios-settings" data-name="Icon ionic-ios-settings" d="M43.37,21.88A2.48,2.48,0,0,1,45,19.56a9.69,9.69,0,0,0-1.19-2.88,2.51,2.51,0,0,1-1,.22,2.49,2.49,0,0,1-2.49-2.48,2.4,2.4,0,0,1,.22-1,10,10,0,0,0-2.88-1.19,2.48,2.48,0,0,1-4.64,0,10,10,0,0,0-2.88,1.19,2.48,2.48,0,0,1-1.25,3.28,2.4,2.4,0,0,1-1,.22,2.51,2.51,0,0,1-1-.22,10.08,10.08,0,0,0-1.19,2.88,2.5,2.5,0,0,1,1.43,3.22,2.46,2.46,0,0,1-1.43,1.43,9.9,9.9,0,0,0,1.19,2.87,2.49,2.49,0,0,1,3.29,3.29A9.74,9.74,0,0,0,33,31.56a2.49,2.49,0,0,1,3.21-1.43,2.52,2.52,0,0,1,1.43,1.43,9.69,9.69,0,0,0,2.88-1.19,2.49,2.49,0,0,1,1.26-3.29,2.53,2.53,0,0,1,2,0A9.74,9.74,0,0,0,45,24.21,2.5,2.5,0,0,1,43.37,21.88Zm-8,4a4,4,0,1,1,4-4h0a4,4,0,0,1-4,4Z"/></svg>