<svg id="Layer_1" data-name="Layer 1" xmlns="http://www.w3.org/2000/svg" viewBox="0 0 322.43 367.9"><defs><style>.cls-1{fill:#b3b3b3;}</style></defs><path class="cls-1" d="M235.53,218a59.29,59.29,0,0,0-8.91-.67,64.61,64.61,0,0,0-17.14,2.37l-20.87,5.75a103.27,103.27,0,0,1-54.79,0L113,219.73a64.6,64.6,0,0,0-17.13-2.37,59.19,59.19,0,0,0-8.91.67A102.55,102.55,0,0,0,0,319.37V334.9a33,33,0,0,0,33,33H289.43a33,33,0,0,0,33-33V319.37A102.54,102.54,0,0,0,235.53,218Zm46.9,109.87H40v-8.53a62.54,62.54,0,0,1,53-61.8,19.09,19.09,0,0,1,2.87-.21,24.77,24.77,0,0,1,6.51.93L123.2,264a143.18,143.18,0,0,0,76,0l20.87-5.75a24.76,24.76,0,0,1,6.5-.93,19,19,0,0,1,2.87.21,62.54,62.54,0,0,1,53,61.8Z"/><path class="cls-1" d="M161.18,209.33h0a91.56,91.56,0,0,0,91.56-91.56v-73h.08V0L207,22.91,161.18,0,115.39,22.89,69.61,0V117.77A91.56,91.56,0,0,0,161.18,209.33ZM109.61,92.5H212.74v25.27a51.57,51.57,0,0,1-103.13,0Z"/></svg>