<svg id="Layer_1" data-name="Layer 1" xmlns="http://www.w3.org/2000/svg" viewBox="0 0 393.02 368.22"><defs><style>.cls-1{fill:#b3b3b3;}</style></defs><path class="cls-1" d="M161.1,207.12A103.56,103.56,0,1,0,57.53,103.56,103.59,103.59,0,0,0,161.1,207.12Zm0-172.6a69,69,0,1,1-69,69A69.16,69.16,0,0,1,161.1,34.52Z"/><path class="cls-1" d="M182.57,340.41a45.08,45.08,0,0,1-3.25-6.71H34.52V315.29a62.24,62.24,0,0,1,62.14-62.14c10.5,0,27.54,11.51,64.44,11.51,3.06,0,6-.09,8.78-.23a24.76,24.76,0,0,1,24.76-24.13h10.21l1.57-3.93a65.3,65.3,0,0,1,10-17c-15.25,2.58-26.8,10.74-55.31,10.74-33.88,0-43.73-11.51-64.44-11.51A96.68,96.68,0,0,0,0,315.29V333.7a34.53,34.53,0,0,0,34.52,34.52H185.14a32.41,32.41,0,0,1-2.57-12.7Z"/><path class="cls-1" d="M388.25,260.3H364.5l-6.61-16.51a44.2,44.2,0,0,0-41.25-27.93H266.25A44.23,44.23,0,0,0,225,243.79l-6.6,16.51H194.64a4.76,4.76,0,0,0-4.62,5.91l2.38,9.53a4.75,4.75,0,0,0,4.62,3.6h8a25.22,25.22,0,0,0-8.76,19.05v19a25.21,25.21,0,0,0,6.35,16.64v21.45a12.71,12.71,0,0,0,12.7,12.7H228a12.71,12.71,0,0,0,12.7-12.7v-12.7H342.23v12.7a12.7,12.7,0,0,0,12.7,12.7h12.69a12.71,12.71,0,0,0,12.7-12.7V334.07a25.21,25.21,0,0,0,6.35-16.64v-19a25.26,25.26,0,0,0-8.76-19.05h8a4.75,4.75,0,0,0,4.62-3.6l2.38-9.53A4.76,4.76,0,0,0,388.25,260.3Zm-139.68-7.07a19,19,0,0,1,17.68-12h50.39a19,19,0,0,1,17.68,12L342.23,273H240.66ZM228,317.35c-7.61,0-12.69-5.06-12.69-12.65S220.35,292,228,292s19,11.39,19,19S235.58,317.35,228,317.35Zm127,0c-7.62,0-19.05,1.27-19.05-6.33s11.43-19,19.05-19,12.69,5.06,12.69,12.66S362.54,317.35,354.93,317.35Z"/></svg>