<svg xmlns="http://www.w3.org/2000/svg" width="16.371" height="10.914" viewBox="0 0 16.371 10.914">
  <path id="Icon_awesome-eye" data-name="Icon awesome-eye" d="M16.272,9.542A9.116,9.116,0,0,0,8.185,4.5,9.117,9.117,0,0,0,.1,9.542a.919.919,0,0,0,0,.83,9.116,9.116,0,0,0,8.087,5.042,9.117,9.117,0,0,0,8.087-5.042A.919.919,0,0,0,16.272,9.542ZM8.185,14.05a4.093,4.093,0,1,1,4.093-4.093A4.093,4.093,0,0,1,8.185,14.05Zm0-6.821a2.709,2.709,0,0,0-.719.108,1.36,1.36,0,0,1-1.9,1.9A2.722,2.722,0,1,0,8.185,7.228Z" transform="translate(0 -4.5)" fill="#9a9a9a"/>
</svg>
