<svg id="Layer_1" data-name="Layer 1" xmlns="http://www.w3.org/2000/svg" viewBox="0 0 367.44 383.49"><path d="M247.6,101.86V0H97.76A17.93,17.93,0,0,0,79.83,17.9v197h-68A11.78,11.78,0,0,0,0,226.68v24.73a11.78,11.78,0,0,0,11.79,11.78h68V365.51a17.92,17.92,0,0,0,17.89,18H349.51a17.93,17.93,0,0,0,17.93-17.9V119.84H265.58A18,18,0,0,1,247.6,101.86Zm84.84,246.63H114.83v-85.3h78.09v49A12.35,12.35,0,0,0,214,320.94l72.18-72.18a13.28,13.28,0,0,0,0-18.79L214,157.79a12.35,12.35,0,0,0-21.08,8.73V214.9H114.83V35H212.6v66.94a53.14,53.14,0,0,0,52.9,52.9h66.94Z"/><path d="M362.25,78.64,288.91,5.24A17.94,17.94,0,0,0,276.13,0h-4.56V95.87h95.87V91.31A17.9,17.9,0,0,0,362.25,78.64Z"/></svg>