<svg id="Layer_1" data-name="Layer 1" xmlns="http://www.w3.org/2000/svg" viewBox="0 0 421.44 383.49"><path d="M287.62,91.31a18,18,0,0,0-5.2-12.67L209.09,5.24A18,18,0,0,0,196.3,0h-4.55V95.87h95.87Z"/><path d="M417.55,230l-72.18-72.18a12.35,12.35,0,0,0-21.08,8.73V214.9H287.62V119.84H185.76a18,18,0,0,1-18-18V0H17.94A17.94,17.94,0,0,0,0,17.9V365.51a17.94,17.94,0,0,0,17.9,18H269.68a17.94,17.94,0,0,0,17.94-17.9V263.19h36.67v49a12.35,12.35,0,0,0,21.08,8.73l72.18-72.18A13.28,13.28,0,0,0,417.55,230ZM252.62,348.49H35V35h97.78v66.94a53.14,53.14,0,0,0,52.9,52.9h66.94V214.9H143.16a11.78,11.78,0,0,0-11.79,11.78v24.73a11.78,11.78,0,0,0,11.79,11.78H252.62Z"/></svg>