<svg id="Layer_1" data-name="Layer 1" xmlns="http://www.w3.org/2000/svg" viewBox="0 0 408.14 327.83"><defs><style>.cls-1{fill:#b3b3b3;}</style></defs><path class="cls-1" d="M378.32,113.81V298H275.59V113.81H378.32M387,84H266.87a21.09,21.09,0,0,0-21.09,21.1V306.73a21.1,21.1,0,0,0,21.09,21.1H387a21.1,21.1,0,0,0,21.1-21.1V105.1A21.1,21.1,0,0,0,387,84Z"/><path class="cls-1" d="M71,184.91V29.81h226.1V62.42H327V21.1A21.1,21.1,0,0,0,305.86,0H62.32a21.1,21.1,0,0,0-21.1,21.1V184.91H11a11,11,0,0,0-11,11v9.53a40.73,40.73,0,0,0,40.74,40.73H224.39V184.91Z"/></svg>