<svg id="Layer_1" data-name="Layer 1" xmlns="http://www.w3.org/2000/svg" viewBox="0 0 486.17 336.52"><defs><style>.cls-1{fill:#b3b3b3;}</style></defs><path class="cls-1" d="M305.77,182.35,268.58,190a124.82,124.82,0,0,1-50.3,0l-37.2-7.62A81.13,81.13,0,0,0,100,263.48v35.61a37.43,37.43,0,0,0,37.43,37.43H349.47a37.43,37.43,0,0,0,37.43-37.43V263.48A81.13,81.13,0,0,0,305.77,182.35ZM351.9,299.09a2.43,2.43,0,0,1-2.43,2.43H137.38a2.43,2.43,0,0,1-2.43-2.43V263.48a46.19,46.19,0,0,1,43.07-46l33.23,6.81a160,160,0,0,0,64.36,0l33.22-6.81a46.19,46.19,0,0,1,43.07,46Z"/><path class="cls-1" d="M243.43,168.2a84.1,84.1,0,1,0-84.1-84.1A84.09,84.09,0,0,0,243.43,168.2Zm0-133.2a49.1,49.1,0,1,1-49.1,49.1A49.15,49.15,0,0,1,243.43,35Z"/><path class="cls-1" d="M411.3,144.88A60.78,60.78,0,1,0,350.52,84.1,60.79,60.79,0,0,0,411.3,144.88Zm0-86.56A25.78,25.78,0,1,1,385.52,84.1,25.81,25.81,0,0,1,411.3,58.32Z"/><path class="cls-1" d="M422.32,168.2h-22a63.49,63.49,0,0,0-33.66,9.6,105.89,105.89,0,0,1,25.95,26.45,28.87,28.87,0,0,1,7.71-1.05h22a28.85,28.85,0,0,1,28.85,28.85h0a18.38,18.38,0,0,0,18.39,18.38h0a16.61,16.61,0,0,0,16.61-16.61v-1.77A63.85,63.85,0,0,0,422.32,168.2Z"/><path class="cls-1" d="M74.87,144.88A60.78,60.78,0,1,0,14.09,84.1,60.78,60.78,0,0,0,74.87,144.88Zm0-86.56A25.78,25.78,0,1,1,49.09,84.1,25.8,25.8,0,0,1,74.87,58.32Z"/><path class="cls-1" d="M119.55,177.8a63.55,63.55,0,0,0-33.67-9.6h-22A63.85,63.85,0,0,0,0,232.05v1.77a16.62,16.62,0,0,0,16.62,16.61h0A18.38,18.38,0,0,0,35,232.05h0A28.85,28.85,0,0,1,63.85,203.2h22a28.82,28.82,0,0,1,7.71,1.05A105.93,105.93,0,0,1,119.55,177.8Z"/></svg>