<svg id="Layer_1" data-name="Layer 1" xmlns="http://www.w3.org/2000/svg" viewBox="0 0 302.9 302.9"><defs><style>.cls-1{fill:#b3b3b3;}</style></defs><path class="cls-1" d="M77.09,128.51l-77,77L0,302.9l96.34-1.06.92-23.43,24.35-1.84.37-22.5,24-1.85,26.65-26.66a113.42,113.42,0,1,0-95.52-97.05ZM248.47,54.43a83.51,83.51,0,0,1,0,118A82.48,82.48,0,0,1,215,192.86a84.41,84.41,0,0,1-37.93,3l-15-2.24L151.4,204.35l-18.81,18.81-12.92,1-27.24,2.1-.37,22.47-23.73,1.8-.85,21.64L30,272.57,30,218,98.3,149.72l10.49-10.48-2-14.7A83.41,83.41,0,0,1,248.47,54.43Z"/><circle class="cls-1" cx="217.85" cy="85.05" r="28.7" transform="translate(85.02 277.53) rotate(-76.72)"/></svg>