<svg id="Layer_1" data-name="Layer 1" xmlns="http://www.w3.org/2000/svg" viewBox="0 0 406.07 316.47"><defs><style>.cls-1{fill:#b3b3b3;}</style></defs><path class="cls-1" d="M203,0C90.9,0,0,90.9,0,203A202.08,202.08,0,0,0,34.62,316.47H371.44A202.09,202.09,0,0,0,406.07,203C406.07,90.9,315.16,0,203,0Zm151.8,286.76H51.24a173.32,173.32,0,1,1,303.59,0Z"/><circle class="cls-1" cx="123.6" cy="122.6" r="23.28" transform="translate(-50.49 123.31) rotate(-45)"/><circle class="cls-1" cx="89.38" cy="201.77" r="23.28" transform="translate(-43.97 25.93) rotate(-13.28)"/><circle class="cls-1" cx="203.03" cy="88.81" r="23.28" transform="translate(43.29 242.4) rotate(-67.5)"/><circle class="cls-1" cx="316.99" cy="201.77" r="23.28" transform="translate(-49.83 283.24) rotate(-45)"/><path class="cls-1" d="M295.29,133.45a16.84,16.84,0,0,0-3.17-23.6h0a16.84,16.84,0,0,0-23.6,3.18L217,180.56a47.79,47.79,0,1,0,33.82,45.71,47.58,47.58,0,0,0-7.15-25.15Z"/></svg>