<svg xmlns="http://www.w3.org/2000/svg" width="18.471" height="18.471" viewBox="0 0 18.471 18.471">
  <path id="Icon_awesome-user-circle" data-name="Icon awesome-user-circle" d="M9.236.563A9.236,9.236,0,1,0,18.471,9.8,9.234,9.234,0,0,0,9.236.563Zm0,3.575A3.277,3.277,0,1,1,5.958,7.415,3.277,3.277,0,0,1,9.236,4.138Zm0,12.811a7.136,7.136,0,0,1-5.456-2.54,4.152,4.152,0,0,1,3.668-2.227.911.911,0,0,1,.264.041,4.931,4.931,0,0,0,1.523.257,4.912,4.912,0,0,0,1.523-.257.911.911,0,0,1,.264-.041,4.152,4.152,0,0,1,3.668,2.227A7.136,7.136,0,0,1,9.236,16.948Z" transform="translate(0 -0.563)" fill="#9a9a9a"/>
</svg>
