<svg id="Layer_1" data-name="Layer 1" xmlns="http://www.w3.org/2000/svg" viewBox="0 0 438.68 329.12"><defs><style>.cls-1{fill:none;}.cls-2{fill:#b3b3b3;}</style></defs><path class="cls-1" d="M232.74,109H340.3L320.9,60.49A32.58,32.58,0,0,0,290.64,40H148a32.59,32.59,0,0,0-30.27,20.49L98.37,109H232.74Z"/><path class="cls-2" d="M108,172.08a26.74,26.74,0,1,0,0,53.48c14.77,0,42.66,3.81,42.66-11C150.68,191.65,122.79,172.08,108,172.08Z"/><path class="cls-2" d="M249.13,272.19A24.27,24.27,0,0,1,256.31,247H67.72a14.17,14.17,0,0,1-14.17-14.18v-45.7a17.88,17.88,0,0,1,4.31-11.64l12.61-14.67A28.5,28.5,0,0,1,92.06,151H311.25a24.45,24.45,0,0,1,18.25-17.38,110.14,110.14,0,0,1,47.85,0,24.4,24.4,0,0,1,19,23.72v4.74c1,.56,2,1.13,3,1.73l4.14-2.38a24.12,24.12,0,0,1,12.12-3.25c.57,0,1.14,0,1.71.07a57.23,57.23,0,0,0-5-7.27h10.88a10.91,10.91,0,0,0,10.87-8.43l4.34-21.15C439.79,115,434.56,109,427.6,109H383.38L358,45.63A72.59,72.59,0,0,0,290.64,0H148a72.58,72.58,0,0,0-67.4,45.63L55.29,109H11.07C4.12,109-1.11,115,.2,121.37l4.34,21.15A10.93,10.93,0,0,0,15.41,151H26.29a57.86,57.86,0,0,0-12.74,36.21v45.7c0,.44,0,.87,0,1.31h0V310a19.12,19.12,0,0,0,19.13,19.13H49.89A19.12,19.12,0,0,0,69,310V287H255a108.94,108.94,0,0,1-5.74-14.58ZM117.77,60.49A32.59,32.59,0,0,1,148,40h142.6A32.58,32.58,0,0,1,320.9,60.49L340.3,109H98.37Z"/><path class="cls-2" d="M436.5,261.45l-15.31-8.84a69,69,0,0,0,0-25.22l15.31-8.83a4.34,4.34,0,0,0,2-5,89.32,89.32,0,0,0-19.65-34,4.31,4.31,0,0,0-5.31-.82l-15.31,8.83A67.78,67.78,0,0,0,376.36,175V157.31a4.3,4.3,0,0,0-3.37-4.2,90.13,90.13,0,0,0-39.23,0,4.3,4.3,0,0,0-3.38,4.2V175a70,70,0,0,0-21.84,12.61l-15.26-8.84a4.28,4.28,0,0,0-5.32.83,89,89,0,0,0-19.65,34,4.3,4.3,0,0,0,2,5l15.3,8.84a69,69,0,0,0,0,25.22l-15.3,8.83a4.35,4.35,0,0,0-2,5,89.46,89.46,0,0,0,19.65,34,4.31,4.31,0,0,0,5.32.83l15.3-8.84a67.8,67.8,0,0,0,21.84,12.61v17.68a4.3,4.3,0,0,0,3.38,4.2A90.39,90.39,0,0,0,373,327a4.3,4.3,0,0,0,3.38-4.2V305.09a70,70,0,0,0,21.84-12.61l15.3,8.84a4.27,4.27,0,0,0,5.32-.83,88.94,88.94,0,0,0,19.65-34A4.43,4.43,0,0,0,436.5,261.45Zm-83.13,7.29A28.74,28.74,0,1,1,382.11,240,28.77,28.77,0,0,1,353.37,268.74Z"/></svg>