<svg id="Layer_1" data-name="Layer 1" xmlns="http://www.w3.org/2000/svg" viewBox="0 0 335.75 335.89"><defs><style>.cls-1{fill:#b3b3b3;}</style></defs><path class="cls-1" d="M335.66,285.27a47.85,47.85,0,0,0-1.76-10.22L291.21,104.3a36.52,36.52,0,0,0-34.6-28.59H241.7a73.81,73.81,0,1,0-147.58,0H79.19a36.53,36.53,0,0,0-34.62,28.56L1.87,275a47.76,47.76,0,0,0,43,60.82l245.53,0,.54,0a47.75,47.75,0,0,0,44.73-50.59Zm-38.11,11.38a12.64,12.64,0,0,1-8.35,4.24H46.57a12.46,12.46,0,0,1-2.42-.46A12.71,12.71,0,0,1,36,293.15a13.12,13.12,0,0,1-.38-8.87v-.06L78.58,112.53l.13-.56a1.61,1.61,0,0,1,1.41-1.27h35.66a17,17,0,0,0,15.94-22.83l-.25-.7a38.8,38.8,0,0,1,71.9-29.07,39.76,39.76,0,0,1,.68,29.77A17,17,0,0,0,220,110.7h35.67a1.59,1.59,0,0,1,1.39,1.26l.06.29L300,283.86l.19.72a12.44,12.44,0,0,1,.5,2.84A12.66,12.66,0,0,1,297.55,296.65Z"/><circle class="cls-1" cx="167.88" cy="72.31" r="21.09" transform="translate(-13.75 51.75) rotate(-16.85)"/></svg>