<svg id="Layer_1" data-name="Layer 1" xmlns="http://www.w3.org/2000/svg" viewBox="0 0 279.33 336.27"><defs><style>.cls-1{fill:#b3b3b3;}</style></defs><path class="cls-1" d="M203.67,134.1a64,64,0,1,0-64,64A64.07,64.07,0,0,0,203.67,134.1Zm-64,41.44a41.45,41.45,0,1,1,41.44-41.44A41.49,41.49,0,0,1,139.67,175.54Z"/><path class="cls-1" d="M241.84,224.94a27.89,27.89,0,0,0,10.82-8.73c6.64-9.14,5.55-20.25,4.59-30.06-.52-5.29-1.05-10.77-.05-13.86.91-2.79,4.59-6.91,7.85-10.54,6.36-7.11,14.28-16,14.28-27.65s-7.92-20.54-14.28-27.65c-3.26-3.64-6.94-7.76-7.85-10.54-1-3.1-.47-8.57.05-13.87,1-9.81,2.05-20.92-4.59-30.05S235,40.39,225.31,38.28c-5.14-1.13-10.47-2.29-13-4.15s-5.18-6.45-7.8-11C199.72,15,193.79,4.79,182.83,1.24c-10.59-3.45-20.73,1-29.68,4.9-5,2.16-10.08,4.4-13.48,4.4s-8.53-2.24-13.49-4.4c-9-3.91-19.09-8.34-29.68-4.9C85.54,4.79,79.61,15,74.84,23.18c-2.62,4.5-5.33,9.15-7.8,11s-7.88,3-13,4.15C44.34,40.39,33.38,42.78,26.68,52S21.12,72.23,22.08,82c.52,5.3,1.05,10.77.05,13.87-.91,2.78-4.59,6.9-7.85,10.54C7.92,113.56,0,122.4,0,134.1s7.92,20.54,14.28,27.65c3.26,3.63,6.94,7.75,7.85,10.54,1,3.09.47,8.57-.05,13.86-1,9.81-2,20.92,4.59,30.06a28,28,0,0,0,10.82,8.73L12.34,287.66a18.9,18.9,0,0,0,18.5,25.91l24.77-1.26,17,18a18.9,18.9,0,0,0,31.28-5.94l25.58-63.78c3.84-1.62,7.52-3,10.17-3s6.32,1.35,10.16,3l25.58,63.78a18.89,18.89,0,0,0,31.28,5.94l17-18,24.77,1.26A18.9,18.9,0,0,0,267,287.66ZM85.11,310.69,70.85,295.6a18.84,18.84,0,0,0-13.73-5.93l-1,0L35.4,290.75l23.92-59.62c3.2.8,6.05,1.72,7.72,2.93,2.47,1.8,5.18,6.45,7.8,10.95,4.77,8.2,10.7,18.39,21.66,21.95a25.49,25.49,0,0,0,5.7,1.14Zm54.63-75.6h-.15c-8.09,0-15.71,3.35-22.44,6.29a81.79,81.79,0,0,1-9.56,3.72,8,8,0,0,1-4.12.4c-1.22-.39-2.59-1.79-4-3.65a90.54,90.54,0,0,1-5.15-8.18c-3.62-6.21-7.72-13.26-14-17.85s-14.4-6.4-21.48-7.94c-4.67-1-10.31-2.26-12.88-4a4.2,4.2,0,0,1-1-.94c-1.59-2.19-.89-9.35-.38-14.58.71-7.24,1.51-15.45-1-23-2.37-7.32-7.52-13.06-12.49-18.62-3.8-4.25-8.53-9.53-8.53-12.6s4.73-8.36,8.53-12.61c5-5.55,10.12-11.3,12.49-18.62,2.46-7.57,1.66-15.78,1-23-.51-5.22-1.21-12.38.38-14.58s8.45-3.75,13.92-5c7.08-1.54,15.1-3.29,21.48-7.94s10.41-11.63,14-17.84c2.83-4.88,6.36-10.94,9.13-11.84a3.4,3.4,0,0,1,1-.14c2.92,0,8.47,2.43,12.66,4.26,6.75,3,14.4,6.29,22.52,6.29s15.76-3.34,22.51-6.29c4.75-2.07,11.24-4.91,13.68-4.12,2.77.9,6.3,7,9.13,11.84,3.62,6.21,7.72,13.25,14,17.84s14.41,6.4,21.48,7.94c5.47,1.2,12.26,2.68,13.92,5s.89,9.36.38,14.58c-.71,7.25-1.51,15.46.95,23,2.37,7.32,7.52,13.07,12.49,18.62,3.8,4.25,8.53,9.54,8.53,12.61s-4.73,8.35-8.53,12.6c-5,5.56-10.12,11.3-12.49,18.62-2.46,7.57-1.66,15.79-.95,23,.51,5.23,1.21,12.39-.38,14.58a4.2,4.2,0,0,1-1,.94c-2.57,1.75-8.2,3-12.88,4-7.07,1.54-15.1,3.3-21.48,7.94s-10.41,11.64-14,17.85a90.54,90.54,0,0,1-5.15,8.18c-1.39,1.86-2.76,3.26-4,3.65a8,8,0,0,1-4.12-.4,82.48,82.48,0,0,1-9.56-3.72C155.45,238.44,147.83,235.11,139.74,235.09Zm83.45,54.6a18.9,18.9,0,0,0-14.71,5.9l-14.26,15.1L177.13,268.1a25.27,25.27,0,0,0,5.7-1.14c11-3.56,16.89-13.75,21.66-21.95,2.62-4.5,5.33-9.15,7.8-10.95,1.67-1.21,4.52-2.13,7.72-2.93l23.92,59.62Z"/></svg>