<svg xmlns="http://www.w3.org/2000/svg" width="6.883" height="13.767" viewBox="0 0 6.883 13.767">
  <g id="Icon_material-battery-charging-90" data-name="Icon material-battery-charging-90" transform="translate(-10.5 -3)">
    <path id="Path_23" data-name="Path 23" d="M16.468,4.377h-1.15V3H12.565V4.377h-1.15a.92.92,0,0,0-.916.916V7.13h3.765l.365-.688V7.13h2.753V5.292A.92.92,0,0,0,16.468,4.377Z" fill="rgba(0,0,0,0.2)"/>
    <path id="Path_24" data-name="Path 24" d="M14.63,15.1h1.377L13.253,20.26V16.474H11.877L14.265,12H10.5v8.721a.92.92,0,0,0,.916.916h5.046a.921.921,0,0,0,.922-.916V12H14.63Z" transform="translate(0 -4.87)" fill="#9a9a9a"/>
  </g>
</svg>
