<svg xmlns="http://www.w3.org/2000/svg" width="16.047" height="17.337" viewBox="0 0 16.047 17.337">
  <g id="Icon_feather-box" data-name="Icon feather-box" transform="translate(-3.34 -1.977)">
    <path id="Path_481" data-name="Path 481" d="M18.226,13.677v-6.1a1.525,1.525,0,0,0-.763-1.319l-5.338-3.05a1.525,1.525,0,0,0-1.525,0L5.263,6.258A1.525,1.525,0,0,0,4.5,7.577v6.1A1.525,1.525,0,0,0,5.263,15l5.338,3.05a1.525,1.525,0,0,0,1.525,0L17.463,15a1.525,1.525,0,0,0,.763-1.319Z" fill="none" stroke="#fff" stroke-linecap="round" stroke-linejoin="round" stroke-width="2"/>
    <path id="Path_482" data-name="Path 482" d="M4.905,10.44l6.657,3.851,6.657-3.851" transform="translate(-0.199 -3.656)" fill="none" stroke="#fff" stroke-linecap="round" stroke-linejoin="round" stroke-width="2"/>
    <path id="Path_483" data-name="Path 483" d="M18,25.687V18" transform="translate(-6.637 -7.373)" fill="none" stroke="#fff" stroke-linecap="round" stroke-linejoin="round" stroke-width="2"/>
  </g>
</svg>
