<svg xmlns="http://www.w3.org/2000/svg" width="18.226" height="15.932" viewBox="0 0 18.226 15.932">
  <g id="Group_431" data-name="Group 431" transform="translate(16206.13 8531.466)">
    <path id="Subtraction_1" data-name="Subtraction 1" d="M9.131,15.932H1.814A1.816,1.816,0,0,1,0,14.117V5.252A1.816,1.816,0,0,1,1.814,3.437H4.525V1.814A1.816,1.816,0,0,1,6.339,0h5.548A1.816,1.816,0,0,1,13.7,1.814V3.437h2.711a1.816,1.816,0,0,1,1.814,1.814V6.466H16.5V5.252a.084.084,0,0,0-.024-.059.088.088,0,0,0-.059-.024H1.814a.088.088,0,0,0-.059.024.084.084,0,0,0-.024.059v2.74h7.4v3.432H7.585a.793.793,0,0,1-.792-.795V9.684H1.731v4.433a.084.084,0,0,0,.084.084H9.131v1.73ZM6.339,1.731a.083.083,0,0,0-.083.084V3.437H11.97V1.814a.084.084,0,0,0-.084-.084Z" transform="translate(-16206.131 -8531.466)" fill="#fff"/>
    <path id="Union_1" data-name="Union 1" d="M6.364,7.778,4.243,5.657,2.121,7.778A1,1,0,0,1,.707,6.364L2.829,4.242.707,2.121A1,1,0,0,1,2.121.707L4.242,2.828,6.364.706A1,1,0,0,1,7.778,2.121L5.657,4.243,7.778,6.364A1,1,0,1,1,6.364,7.778Z" transform="translate(-16195.976 -8523.604)" fill="#fff"/>
  </g>
</svg>
