<svg id="Layer_1" data-name="Layer 1" xmlns="http://www.w3.org/2000/svg" viewBox="0 0 287.62 383.49"><path d="M182.19,207.35h-11a2.16,2.16,0,0,1-.62-.09c-5.23-1.47-12.11-2.34-21.63-2.34-8.89,0-19.36.85-27.88,6.08l-.5.32a2.31,2.31,0,0,1-2.44.1C107.66,205.47,92.22,205,86.6,205c-10.71,0-25.32,1.7-36.39,12.78-9.5,9.86-11.81,21.79-11.81,32.62,0,9.86,2,23.25,12.29,32.87C61.77,294,75.77,295.12,88.55,295.12c10.83,0,22.4-.86,30.8-6.7l.27-.19c9,6.12,22,6.76,33.78,6.76,17.65,0,25.56-3.4,30.07-6.57a26,26,0,0,0,3.13-2.69,2.37,2.37,0,0,1,3.88.8l1.82,4.54a2.39,2.39,0,0,0,2.21,1.49h21.25a2.38,2.38,0,0,0,2.21-1.49l32.41-80.45a2.38,2.38,0,0,0-2.21-3.27H229.3A2.39,2.39,0,0,0,227,209l-21,61.32h-.73L184.45,209A2.39,2.39,0,0,0,182.19,207.35Zm-18.08,68.9c-2.31,1.34-5.72,1.95-12.17,1.95-4.38,0-12.17-.37-16.43-4.63a9.51,9.51,0,0,1-3.1-5.84,2.49,2.49,0,0,1,0-.77c.08-.5.16-1,.22-1.54a2.4,2.4,0,0,0-2.37-2.68H111.61a2.39,2.39,0,0,0-2.35,2v0c0,.1,0,.2-.07.3a7.19,7.19,0,0,0-.33,1.45,14.88,14.88,0,0,1-5.7,8.27c-4.38,3-10.47,3.28-14.85,3.28-5.85,0-12.54-.73-18.26-6.2-3.78-3.78-7.31-10.35-7.31-21.55s3.66-17.77,7.06-21.55c5.73-6,12.18-6.69,18.39-6.69,4.5,0,9.61.49,14.36,3.41,3.93,2.51,6.43,8.94,6.9,10.24a2.56,2.56,0,0,1,.11.46,19.15,19.15,0,0,0,4.52,10.24c5.48,6.08,16.19,7.91,25.56,9.25l12.3,1.94c3,.61,9.25,1.83,11.81,2.8,5.23,2.07,6,5.36,6,7.31A10,10,0,0,1,164.11,276.25Zm5-33.11c-2-.4-4-.75-6-1.1l-9.74-1.58c-9-1.34-12.29-2.07-14.61-3-2.8-1-6.08-2.56-6.08-6.45a8.76,8.76,0,0,1,4.26-7.43c2.92-1.83,7.42-2.31,11.68-2.31,3.17,0,9.62.36,13.64,2.31,3.77,2,6,7.79,6,7.79l3.45,8.59A2.38,2.38,0,0,1,169.1,243.14Z"/><path d="M167.78,101.86V0H17.94A17.94,17.94,0,0,0,0,17.9V365.51a17.94,17.94,0,0,0,17.9,18H269.68a17.94,17.94,0,0,0,17.94-17.9V119.84H185.76A18,18,0,0,1,167.78,101.86Zm84.84,246.63H35V35h97.78v66.94a53.14,53.14,0,0,0,52.9,52.9h66.94Z"/><path d="M282.42,78.64,209.09,5.24A18,18,0,0,0,196.3,0h-4.55V95.87h95.87V91.31A18,18,0,0,0,282.42,78.64Z"/></svg>