<svg id="Layer_1" data-name="Layer 1" xmlns="http://www.w3.org/2000/svg" viewBox="0 0 287.62 383.49"><path d="M167.78,101.86V0H17.94A17.94,17.94,0,0,0,0,17.9V365.51a17.94,17.94,0,0,0,17.9,18H269.68a17.94,17.94,0,0,0,17.94-17.9V119.84H185.76A18,18,0,0,1,167.78,101.86Zm84.84,246.63H35V35h97.78v66.94a53.14,53.14,0,0,0,52.9,52.9h66.94Z"/><path d="M282.42,78.64,209.09,5.24A18,18,0,0,0,196.3,0h-4.55V95.87h95.87V91.31A18,18,0,0,0,282.42,78.64Z"/><path d="M169.89,184.29l-27.51,37.12a4.1,4.1,0,0,1-6.57,0L108.3,184.29a4.09,4.09,0,0,0-3.29-1.65H73.75a4.09,4.09,0,0,0-3.18,6.66L114,242.85a4.08,4.08,0,0,1,0,5.1l-46.17,58.4A4.08,4.08,0,0,0,71,313h31.18a4.09,4.09,0,0,0,3.31-1.69l27.62-38.15a4.09,4.09,0,0,1,6.66.05l26.58,38.05a4.11,4.11,0,0,0,3.35,1.74H203a4.08,4.08,0,0,0,3.22-6.6L160.48,248a4.09,4.09,0,0,1,.08-5.13l44.3-53.52a4.08,4.08,0,0,0-3.14-6.69H173.18A4.09,4.09,0,0,0,169.89,184.29Z"/></svg>