<svg id="Layer_1" data-name="Layer 1" xmlns="http://www.w3.org/2000/svg" viewBox="0 0 294.04 349.57"><defs><style>.cls-1{fill:#b3b3b3;}</style></defs><rect class="cls-1" x="87.65" y="57.22" width="86.61" height="57.39" rx="9.13"/><path class="cls-1" d="M264.33,18A10,10,0,1,0,249.6,31.52l20.21,22L246.7,77.41v32.44l.18.66c.19.71,4.58,15.51,27.16,19V250.43a5.65,5.65,0,1,1-11.3,0V240a25.68,25.68,0,0,0-25.65-25.65h-4.66V25.83A25.82,25.82,0,0,0,206.61,0H55.3A25.82,25.82,0,0,0,29.48,25.83V272.59A55.53,55.53,0,0,0,0,321.65v27.92H261.91V321.65a55.53,55.53,0,0,0-29.48-49.06V234.35h4.66a5.66,5.66,0,0,1,5.65,5.65v10.43a25.65,25.65,0,1,0,51.3,0V50.37Zm-66.9,17V266.09H64.48V35ZM36.26,314.57A20.64,20.64,0,0,1,52.64,301.3H209.27a20.63,20.63,0,0,1,16.38,13.27ZM274,119.35c-12.77-2.41-16.54-9.19-17.34-11V81.46L274,63.55Z"/></svg>