<svg id="Layer_1" data-name="Layer 1" xmlns="http://www.w3.org/2000/svg" viewBox="0 0 421.24 368.22"><defs><style>.cls-1{fill:#b3b3b3;}</style></defs><path class="cls-1" d="M274.73,40a1.93,1.93,0,0,1,1.93,1.93V79.44H144.58V41.93A1.93,1.93,0,0,1,146.51,40H274.73m0-40H146.51a41.93,41.93,0,0,0-41.93,41.93V79.44H41.94A41.93,41.93,0,0,0,0,121.37V326.28a41.94,41.94,0,0,0,41.94,41.94H379.3a41.94,41.94,0,0,0,41.94-41.94V121.37A41.94,41.94,0,0,0,379.3,79.44H316.66V41.93A41.93,41.93,0,0,0,274.73,0ZM40,184.7V121.37a1.93,1.93,0,0,1,1.94-1.93H379.3a1.93,1.93,0,0,1,1.94,1.93V184.7ZM175.32,264h70.6a18.31,18.31,0,0,0,18.31-18.31V223.83h117V326.28a1.94,1.94,0,0,1-1.94,1.94H41.94A1.94,1.94,0,0,1,40,326.28V223.83H157v21.82A18.31,18.31,0,0,0,175.32,264Z"/></svg>