<svg id="Layer_1" data-name="Layer 1" xmlns="http://www.w3.org/2000/svg" viewBox="0 0 336.94 336.38"><defs><style>.cls-1{fill:#b3b3b3;}</style></defs><circle class="cls-1" cx="51.89" cy="284.5" r="11.1"/><path class="cls-1" d="M31.31,264.78a28.5,28.5,0,0,0,0,40.29h0a28.49,28.49,0,0,0,40.3,0l99.4-99.4,16.26,16.26-99.4,99.4a51.48,51.48,0,0,1-72.81-72.81l70-70a68.11,68.11,0,0,0,21.63,10.89Z"/><path class="cls-1" d="M207.68,169l.43-.43A75.73,75.73,0,0,0,311.84,83.8L266.1,129.54l-53-6.25-6.26-53,45.74-45.74a75.69,75.69,0,0,0-84.82,44.88L150.51,52.18A98.75,98.75,0,0,1,292.78,16.87L276.11,33.53,231,78.66l2.83,23.92,23.91,2.82,45.13-45.13,16.67-16.66A98.78,98.78,0,0,1,262,194.47l-28.29.6Z"/><path class="cls-1" d="M163.47,86.81l-81-81a19.8,19.8,0,0,0-28,0L7.81,52.45a19.8,19.8,0,0,0,0,28l81,81a52.81,52.81,0,0,0,66.4,6.74l57.46,57.46-1.07,50.1,80.56,59,20.45-20.45,3.87-3.88L336.94,290l-59-80.56-50.37,1.08-57.32-57.33A52.81,52.81,0,0,0,163.47,86.81Zm71.38,177.47.66-30.91,30.92-.66,40.31,55-6.51,6.5-3.87,3.88-6.51,6.5ZM147.21,103.07a29.79,29.79,0,1,1-42.13,42.13L26.33,66.45,68.46,24.32Z"/></svg>