<svg id="Layer_1" data-name="Layer 1" xmlns="http://www.w3.org/2000/svg" viewBox="0 0 388.42 349.81"><defs><style>.cls-1{fill:#b3b3b3;}</style></defs><path class="cls-1" d="M378.64,106.32a22.88,22.88,0,0,0-21-2.71L254.58,141.55l2.28-2.74.46-.62a84.79,84.79,0,1,0-147.76-31.25L14.14,142.06A21.05,21.05,0,0,0,0,161.82v167a21,21,0,0,0,8.79,17,21.75,21.75,0,0,0,19.65,2.86l111.67-41.2,111.06,41.08.35.12a21.62,21.62,0,0,0,7,1.17c.32,0,.63,0,.95,0s.63,0,.95,0a21.57,21.57,0,0,0,7-1.17l102.91-38a27.66,27.66,0,0,0,18-25.85V125.08A22.9,22.9,0,0,0,378.64,106.32ZM118.37,282.42,31,314.66V168.89l87.37-32.16ZM239.06,311l-89.7-33.18V166.33l36,43.94a7.86,7.86,0,0,0,12.14,0l36-43.44,5.48,2Zm-3.52-195.36-5.78,7-6.28,7.53-21,25.29-11,13.19-20.69-24.85-17.61-21.17-5.79-6.94a53.83,53.83,0,1,1,88.18,0ZM357.43,282.42l-87.37,32.24V168.89l87.37-32.16Z"/><circle class="cls-1" cx="191.45" cy="85.58" r="15.77" transform="translate(-11.24 31.77) rotate(-9.22)"/></svg>