<svg id="Layer_1" data-name="Layer 1" xmlns="http://www.w3.org/2000/svg" viewBox="0 0 344.31 344.31"><defs><style>.cls-1{fill:#b3b3b3;}</style></defs><path class="cls-1" d="M126.81,13.09a44.6,44.6,0,0,1,9.49,14.05L151.24,62a44.8,44.8,0,0,1-13.56,52.88l-32.91,25.75a204.45,204.45,0,0,0,40.83,58.1,204.41,204.41,0,0,0,58.09,40.83l25.76-32.91a44.79,44.79,0,0,1,52.87-13.56L317.17,208a44.71,44.71,0,0,1,25.94,51.39l-11.86,50.4a44.71,44.71,0,0,1-44.06,34.51,289.31,289.31,0,0,1-202-85.18A289.36,289.36,0,0,1,0,57.12,44.76,44.76,0,0,1,34.52,13.05L84.92,1.2A44.69,44.69,0,0,1,126.81,13.09Zm-2.1,206.5a233.46,233.46,0,0,1-51.73-78l-4.17-10.31L119.48,91.6a15.23,15.23,0,0,0,4.61-18L109.16,38.77A15.22,15.22,0,0,0,91.68,30L41.28,41.8a15.29,15.29,0,0,0-11.74,15,259.91,259.91,0,0,0,76.53,181.49,259.89,259.89,0,0,0,181.49,76.53A15.27,15.27,0,0,0,302.5,303l11.86-50.4a15.21,15.21,0,0,0-8.83-17.48l-34.84-14.93a15.23,15.23,0,0,0-18,4.61l-39.64,50.66-10.31-4.16A233.53,233.53,0,0,1,124.71,219.59Z"/></svg>