<svg id="Layer_1" data-name="Layer 1" xmlns="http://www.w3.org/2000/svg" viewBox="0 0 328.65 329.17"><defs><style>.cls-1{fill:#b3b3b3;}</style></defs><path class="cls-1" d="M307.47,0H79.87A21.17,21.17,0,0,0,58.7,21.18V293.57H57.41A22.41,22.41,0,0,1,35,271.16V67.47H25.55A25.55,25.55,0,0,0,0,93V305.89a23.28,23.28,0,0,0,23.28,23.28H93.13v-.08H307.47a21.18,21.18,0,0,0,21.18-21.18V21.18A21.18,21.18,0,0,0,307.47,0ZM293.65,294.09H93.7V35h200Z"/><path class="cls-1" d="M128.43,109h67.24a17.5,17.5,0,0,0,0-35H128.43a17.5,17.5,0,0,0,0,35Z"/><rect class="cls-1" x="110.93" y="147.4" width="163.8" height="35" rx="17.5"/><rect class="cls-1" x="110.93" y="220.82" width="163.8" height="35" rx="17.5"/></svg>