<svg id="Layer_1" data-name="Layer 1" xmlns="http://www.w3.org/2000/svg" viewBox="0 0 303.74 349.57"><defs><style>.cls-1{fill:#b3b3b3;}</style></defs><path class="cls-1" d="M254.53,189.46a49,49,0,0,0-22.82,5.62l-46.53-45.74c15.49-24,28.29-49.31,28.29-67.21a82.13,82.13,0,0,0-164.26,0c0,45.35,82.13,138,82.13,138s17.56-19.82,36.44-45.6l42.77,42a49,49,0,0,0-5.21,21.1L89.73,272.42a49.23,49.23,0,1,0,8.67,28.91L214,266.6a49.21,49.21,0,1,0,40.52-77.14ZM131.34,172.69c-5.28-6.76-11-14.4-16.77-22.46C80.38,102.12,79.39,84,79.39,82.13a52,52,0,1,1,103.9,0c0,1.9-1,20-35.18,68.1C142.38,158.29,136.62,165.93,131.34,172.69Z"/></svg>