<svg xmlns="http://www.w3.org/2000/svg" width="17.667" height="17.672" viewBox="0 0 17.667 17.672">
  <path id="Icon_ionic-ios-settings" data-name="Icon ionic-ios-settings" d="M20.708,13.333a2.273,2.273,0,0,1,1.458-2.121,9.011,9.011,0,0,0-1.09-2.627,2.3,2.3,0,0,1-.925.2A2.268,2.268,0,0,1,18.077,5.59,8.984,8.984,0,0,0,15.454,4.5a2.271,2.271,0,0,1-4.242,0A9.011,9.011,0,0,0,8.585,5.59,2.268,2.268,0,0,1,6.511,8.783a2.229,2.229,0,0,1-.925-.2A9.21,9.21,0,0,0,4.5,11.217a2.273,2.273,0,0,1,0,4.242,9.011,9.011,0,0,0,1.09,2.627,2.269,2.269,0,0,1,3,3,9.064,9.064,0,0,0,2.627,1.09,2.267,2.267,0,0,1,4.233,0,9.011,9.011,0,0,0,2.627-1.09,2.272,2.272,0,0,1,3-3,9.064,9.064,0,0,0,1.09-2.627A2.284,2.284,0,0,1,20.708,13.333Zm-7.334,3.676a3.681,3.681,0,1,1,3.681-3.681A3.68,3.68,0,0,1,13.375,17.009Z" transform="translate(-4.5 -4.5)" fill="#9a9a9a"/>
</svg>
