<svg xmlns="http://www.w3.org/2000/svg" width="25.088" height="16.434" viewBox="0 0 25.088 16.434">
  <g id="thailand" transform="translate(0 -88.3)">
    <path id="Path_1" data-name="Path 1" d="M24.657,104.734H.431A.432.432,0,0,1,0,104.3V88.731A.432.432,0,0,1,.431,88.3H24.652a.432.432,0,0,1,.431.431V104.3A.425.425,0,0,1,24.657,104.734Z" transform="translate(0 0)" fill="#f5f5f5"/>
    <g id="Group_2" data-name="Group 2" transform="translate(0 88.3)">
      <path id="Path_2" data-name="Path 2" d="M24.657,373.392H.431A.432.432,0,0,1,0,372.961V370.8H25.088v2.161A.432.432,0,0,1,24.657,373.392Z" transform="translate(0 -356.958)" fill="#ff4b55"/>
      <path id="Path_3" data-name="Path 3" d="M.431,88.3H24.652a.432.432,0,0,1,.431.431v2.161H0V88.731A.432.432,0,0,1,.431,88.3Z" transform="translate(0 -88.3)" fill="#ff4b55"/>
    </g>
    <rect id="Rectangle_4" data-name="Rectangle 4" width="25.088" height="6.056" transform="translate(0 93.489)" fill="#41479b"/>
  </g>
</svg>
