<svg xmlns="http://www.w3.org/2000/svg" width="17.749" height="14.862" viewBox="0 0 17.749 14.862">
  <g id="Icon_feather-users" data-name="Icon feather-users" transform="translate(-0.75 -3.683)">
    <path id="Path_497" data-name="Path 497" d="M13.317,26.932V25.454A2.954,2.954,0,0,0,10.363,22.5H4.454A2.954,2.954,0,0,0,1.5,25.454v1.477" transform="translate(0 -9.137)" fill="none" stroke="#fff" stroke-linecap="round" stroke-linejoin="round" stroke-width="1.5"/>
    <path id="Path_498" data-name="Path 498" d="M13.409,7.454A2.954,2.954,0,1,1,10.454,4.5,2.954,2.954,0,0,1,13.409,7.454Z" transform="translate(-3.046 0)" fill="none" stroke="#fff" stroke-linecap="round" stroke-linejoin="round" stroke-width="1.5"/>
    <path id="Path_499" data-name="Path 499" d="M32.216,27.031V25.553A2.954,2.954,0,0,0,30,22.7" transform="translate(-14.467 -9.236)" fill="none" stroke="#fff" stroke-linecap="round" stroke-linejoin="round" stroke-width="1.5"/>
    <path id="Path_500" data-name="Path 500" d="M24,4.7a2.954,2.954,0,0,1,0,5.724" transform="translate(-11.421 -0.099)" fill="none" stroke="#fff" stroke-linecap="round" stroke-linejoin="round" stroke-width="1.5"/>
  </g>
</svg>
