<svg id="Layer_1" data-name="Layer 1" xmlns="http://www.w3.org/2000/svg" viewBox="0 0 296.22 172.97"><defs><style>.cls-1{fill:#fff;}</style></defs><path class="cls-1" d="M164.66,135.68c30,8.32,30.47,28.55,29.15,37.29h31l7.67-18.58,15.35-37.17C199.37,118,127,125.24,164.66,135.68Z"/><path class="cls-1" d="M242.8,0l-37,89.69L168.74,0H127.48l-37,89.69L53.43,0H0L63.74,154.39,71.41,173c54.86-7,66.45-18.42,43.53-29.71S91.31,123.87,103,120s58.54-4.94,94.16-10.58,9.17-15.17,9.17-15.17c28.54-1.38,42.35,3,48.51,6.12L296.22,0ZM168.21,68,148.11,99,128,68a22.06,22.06,0,1,1,40.2,0Z"/></svg>